<svg width="10" height="10" viewBox="0 0 43 10" fill="none" xmlns="http://www.w3.org/2000/svg">
<path d="M2.23315 7.36523C2.49487 7.63867 2.78589 7.84766 3.1062 7.99219C3.42651 8.13672 3.86597 8.20898 4.42456 8.20898C5.47144 8.20898 6.25073 7.77148 6.76245 6.89648C7.14136 6.24805 7.33081 5.4707 7.33081 4.56445C7.33081 4.05664 7.25659 3.58984 7.10815 3.16406C7.02612 2.93359 6.90503 2.68164 6.74487 2.4082L2.23315 7.36523ZM0.440186 9.21094L0.0534668 8.84766L1.07886 7.79297C0.758545 7.375 0.520264 6.90625 0.364014 6.38672C0.21167 5.86328 0.135498 5.31445 0.135498 4.74023C0.135498 3.55273 0.440186 2.53711 1.04956 1.69336C1.79175 0.666016 2.8562 0.152344 4.24292 0.152344C4.93433 0.152344 5.52026 0.240234 6.00073 0.416016C6.48511 0.587891 6.88745 0.824219 7.20776 1.125L8.11011 0.158203L8.48511 0.515625L7.56519 1.5293C7.78784 1.80273 7.99097 2.14844 8.17456 2.56641C8.40894 3.14063 8.52612 3.80078 8.52612 4.54688C8.52612 5.96875 8.12573 7.11328 7.32495 7.98047C6.5437 8.82812 5.54175 9.25195 4.31909 9.25195C3.58862 9.25195 2.95581 9.12891 2.42065 8.88281C2.08081 8.72656 1.75073 8.49805 1.43042 8.19727L0.440186 9.21094ZM6.42847 2.00391C6.16675 1.77344 5.92456 1.60352 5.7019 1.49414C5.29956 1.29492 4.84058 1.19531 4.32495 1.19531C3.44604 1.19531 2.72925 1.50391 2.17456 2.12109C1.61987 2.73438 1.34253 3.63281 1.34253 4.81641C1.34253 5.1875 1.38159 5.56055 1.45972 5.93555C1.53784 6.31055 1.68042 6.65234 1.88745 6.96094L6.42847 2.00391ZM12.7214 9C12.7605 8.27734 12.9089 7.64844 13.1667 7.11328C13.4285 6.57812 13.9363 6.0918 14.6902 5.6543L15.8152 5.00391C16.3191 4.71094 16.6726 4.46094 16.8757 4.25391C17.196 3.92969 17.3562 3.55859 17.3562 3.14063C17.3562 2.65234 17.2097 2.26563 16.9167 1.98047C16.6238 1.69141 16.2332 1.54688 15.7449 1.54688C15.0222 1.54688 14.5222 1.82031 14.2449 2.36719C14.0964 2.66016 14.0144 3.06641 13.9988 3.58594H12.9265C12.9382 2.85547 13.073 2.25977 13.3308 1.79883C13.7878 0.986328 14.5945 0.580078 15.7507 0.580078C16.7117 0.580078 17.4128 0.839844 17.8542 1.35938C18.2996 1.87891 18.5222 2.45703 18.5222 3.09375C18.5222 3.76563 18.2859 4.33984 17.8132 4.81641C17.5398 5.09375 17.0496 5.42969 16.3425 5.82422L15.5398 6.26953C15.157 6.48047 14.8562 6.68164 14.6375 6.87305C14.2468 7.21289 14.0007 7.58984 13.8992 8.00391L18.4812 8.00391V9L12.7214 9ZM22.1433 9.22852C21.1511 9.22852 20.4304 8.95703 19.9812 8.41406C19.5359 7.86719 19.3132 7.20313 19.3132 6.42188H20.4148C20.4617 6.96484 20.5632 7.35938 20.7195 7.60547C20.9929 8.04688 21.4871 8.26758 22.2019 8.26758C22.7566 8.26758 23.2019 8.11914 23.5378 7.82227C23.8738 7.52539 24.0417 7.14258 24.0417 6.67383C24.0417 6.0957 23.864 5.69141 23.5085 5.46094C23.157 5.23047 22.6667 5.11523 22.0378 5.11523C21.9675 5.11523 21.8953 5.11719 21.821 5.12109C21.7507 5.12109 21.6785 5.12305 21.6042 5.12695V4.19531C21.7136 4.20703 21.8054 4.21484 21.8796 4.21875C21.9539 4.22266 22.0339 4.22461 22.1199 4.22461C22.5144 4.22461 22.8386 4.16211 23.0925 4.03711C23.5378 3.81836 23.7605 3.42773 23.7605 2.86523C23.7605 2.44727 23.6121 2.125 23.3152 1.89844C23.0183 1.67188 22.6726 1.55859 22.2781 1.55859C21.575 1.55859 21.0886 1.79297 20.8191 2.26172C20.6707 2.51953 20.5867 2.88672 20.5671 3.36328H19.5242C19.5242 2.73828 19.6492 2.20703 19.8992 1.76953C20.3289 0.988281 21.0847 0.597656 22.1667 0.597656C23.0222 0.597656 23.6843 0.789063 24.1531 1.17188C24.6218 1.55078 24.8562 2.10156 24.8562 2.82422C24.8562 3.33984 24.7175 3.75781 24.4402 4.07813C24.2683 4.27734 24.0457 4.43359 23.7722 4.54688C24.2136 4.66797 24.5574 4.90234 24.8035 5.25C25.0535 5.59375 25.1785 6.01563 25.1785 6.51563C25.1785 7.31641 24.9148 7.96875 24.3875 8.47266C23.8601 8.97656 23.1121 9.22852 22.1433 9.22852ZM29.6726 6.0293V2.22656L26.9832 6.0293H29.6726ZM29.6902 9V6.94922H26.0105V5.91797L29.8542 0.585938H30.7449V6.0293H31.9812V6.94922H30.7449V9H29.6902ZM36.5164 2.72461H38.0867L39.7449 7.86914H39.7683L41.45 2.72461H42.9265V9H41.9187V3.94922H41.8953L40.2371 9H39.2058L37.5476 3.94922H37.5242V9H36.5164V2.72461Z" fill="white"/>
</svg>
